<mxfile host="Electron" agent="Mozilla/5.0 (Windows NT 10.0; Win64; x64) AppleWebKit/537.36 (KHTML, like Gecko) draw.io/28.0.6 Chrome/138.0.7204.100 Electron/37.2.3 Safari/537.36" version="28.0.6">
  <diagram name="Page-1" id="71xHAyay-ET0hjfvyiER">
    <mxGraphModel dx="1895" dy="1138" grid="1" gridSize="10" guides="1" tooltips="1" connect="1" arrows="1" fold="1" page="1" pageScale="1" pageWidth="850" pageHeight="1100" math="0" shadow="0">
      <root>
        <mxCell id="0" />
        <mxCell id="1" parent="0" />
        <mxCell id="8YDq5UJeECT5RXHeie3x-1" value="Performance Indexes" style="whiteSpace=wrap;strokeWidth=2;" vertex="1" parent="1">
          <mxGeometry x="338" y="20" width="249" height="436" as="geometry" />
        </mxCell>
        <mxCell id="8YDq5UJeECT5RXHeie3x-2" value="Composite Indexes" style="whiteSpace=wrap;strokeWidth=2;" vertex="1" parent="1">
          <mxGeometry x="20" y="20" width="268" height="436" as="geometry" />
        </mxCell>
        <mxCell id="8YDq5UJeECT5RXHeie3x-3" value="Unique Indexes" style="whiteSpace=wrap;strokeWidth=2;" vertex="1" parent="1">
          <mxGeometry x="338" y="476" width="249" height="540" as="geometry" />
        </mxCell>
        <mxCell id="8YDq5UJeECT5RXHeie3x-4" value="Primary Indexes" style="whiteSpace=wrap;strokeWidth=2;" vertex="1" parent="1">
          <mxGeometry x="20" y="476" width="268" height="436" as="geometry" />
        </mxCell>
        <mxCell id="8YDq5UJeECT5RXHeie3x-5" value="UserId PK" style="whiteSpace=wrap;strokeWidth=2;" vertex="1" parent="1">
          <mxGeometry x="90" y="511" width="128" height="54" as="geometry" />
        </mxCell>
        <mxCell id="8YDq5UJeECT5RXHeie3x-6" value="ProductId PK" style="whiteSpace=wrap;strokeWidth=2;" vertex="1" parent="1">
          <mxGeometry x="78" y="615" width="151" height="54" as="geometry" />
        </mxCell>
        <mxCell id="8YDq5UJeECT5RXHeie3x-7" value="RFIDCode PK" style="whiteSpace=wrap;strokeWidth=2;" vertex="1" parent="1">
          <mxGeometry x="78" y="719" width="151" height="54" as="geometry" />
        </mxCell>
        <mxCell id="8YDq5UJeECT5RXHeie3x-8" value="InvoiceId PK" style="whiteSpace=wrap;strokeWidth=2;" vertex="1" parent="1">
          <mxGeometry x="80" y="823" width="147" height="54" as="geometry" />
        </mxCell>
        <mxCell id="8YDq5UJeECT5RXHeie3x-9" value="Email UK" style="whiteSpace=wrap;strokeWidth=2;" vertex="1" parent="1">
          <mxGeometry x="400" y="511" width="124" height="54" as="geometry" />
        </mxCell>
        <mxCell id="8YDq5UJeECT5RXHeie3x-10" value="ClientCode UK" style="whiteSpace=wrap;strokeWidth=2;" vertex="1" parent="1">
          <mxGeometry x="381" y="615" width="163" height="54" as="geometry" />
        </mxCell>
        <mxCell id="8YDq5UJeECT5RXHeie3x-11" value="ItemCode UK" style="whiteSpace=wrap;strokeWidth=2;" vertex="1" parent="1">
          <mxGeometry x="385" y="719" width="153" height="54" as="geometry" />
        </mxCell>
        <mxCell id="8YDq5UJeECT5RXHeie3x-12" value="InvoiceNumber UK" style="whiteSpace=wrap;strokeWidth=2;" vertex="1" parent="1">
          <mxGeometry x="366" y="823" width="191" height="54" as="geometry" />
        </mxCell>
        <mxCell id="8YDq5UJeECT5RXHeie3x-13" value="TransferNumber UK" style="whiteSpace=wrap;strokeWidth=2;" vertex="1" parent="1">
          <mxGeometry x="363" y="927" width="199" height="54" as="geometry" />
        </mxCell>
        <mxCell id="8YDq5UJeECT5RXHeie3x-14" value="ClientCode + IsActive" style="whiteSpace=wrap;strokeWidth=2;" vertex="1" parent="1">
          <mxGeometry x="48" y="55" width="212" height="54" as="geometry" />
        </mxCell>
        <mxCell id="8YDq5UJeECT5RXHeie3x-15" value="BranchId + CounterId" style="whiteSpace=wrap;strokeWidth=2;" vertex="1" parent="1">
          <mxGeometry x="48" y="159" width="211" height="54" as="geometry" />
        </mxCell>
        <mxCell id="8YDq5UJeECT5RXHeie3x-16" value="ProductId + Status" style="whiteSpace=wrap;strokeWidth=2;" vertex="1" parent="1">
          <mxGeometry x="59" y="263" width="190" height="54" as="geometry" />
        </mxCell>
        <mxCell id="8YDq5UJeECT5RXHeie3x-17" value="MovementDate + Type" style="whiteSpace=wrap;strokeWidth=2;" vertex="1" parent="1">
          <mxGeometry x="45" y="367" width="218" height="54" as="geometry" />
        </mxCell>
        <mxCell id="8YDq5UJeECT5RXHeie3x-18" value="Status Index" style="whiteSpace=wrap;strokeWidth=2;" vertex="1" parent="1">
          <mxGeometry x="388" y="55" width="148" height="54" as="geometry" />
        </mxCell>
        <mxCell id="8YDq5UJeECT5RXHeie3x-19" value="Date Indexes" style="whiteSpace=wrap;strokeWidth=2;" vertex="1" parent="1">
          <mxGeometry x="386" y="159" width="152" height="54" as="geometry" />
        </mxCell>
        <mxCell id="8YDq5UJeECT5RXHeie3x-20" value="Category Indexes" style="whiteSpace=wrap;strokeWidth=2;" vertex="1" parent="1">
          <mxGeometry x="371" y="263" width="183" height="54" as="geometry" />
        </mxCell>
        <mxCell id="8YDq5UJeECT5RXHeie3x-21" value="RFID Status Index" style="whiteSpace=wrap;strokeWidth=2;" vertex="1" parent="1">
          <mxGeometry x="370" y="367" width="184" height="54" as="geometry" />
        </mxCell>
        <mxCell id="8YDq5UJeECT5RXHeie3x-22" value="" style="curved=1;startArrow=none;endArrow=block;exitX=1;exitY=0.5;entryX=0;entryY=0.5;rounded=0;" edge="1" parent="1" source="8YDq5UJeECT5RXHeie3x-5" target="8YDq5UJeECT5RXHeie3x-9">
          <mxGeometry relative="1" as="geometry">
            <Array as="points" />
          </mxGeometry>
        </mxCell>
        <mxCell id="8YDq5UJeECT5RXHeie3x-23" value="" style="curved=1;startArrow=none;endArrow=block;exitX=1;exitY=0.5;entryX=0;entryY=0.5;rounded=0;" edge="1" parent="1" source="8YDq5UJeECT5RXHeie3x-6" target="8YDq5UJeECT5RXHeie3x-10">
          <mxGeometry relative="1" as="geometry">
            <Array as="points" />
          </mxGeometry>
        </mxCell>
        <mxCell id="8YDq5UJeECT5RXHeie3x-24" value="" style="curved=1;startArrow=none;endArrow=block;exitX=1;exitY=0.5;entryX=0;entryY=0.5;rounded=0;" edge="1" parent="1" source="8YDq5UJeECT5RXHeie3x-7" target="8YDq5UJeECT5RXHeie3x-11">
          <mxGeometry relative="1" as="geometry">
            <Array as="points" />
          </mxGeometry>
        </mxCell>
        <mxCell id="8YDq5UJeECT5RXHeie3x-25" value="" style="curved=1;startArrow=none;endArrow=block;exitX=1;exitY=0.5;entryX=0;entryY=0.5;rounded=0;" edge="1" parent="1" source="8YDq5UJeECT5RXHeie3x-8" target="8YDq5UJeECT5RXHeie3x-12">
          <mxGeometry relative="1" as="geometry">
            <Array as="points" />
          </mxGeometry>
        </mxCell>
        <mxCell id="8YDq5UJeECT5RXHeie3x-26" value="" style="curved=1;startArrow=none;endArrow=block;exitX=1;exitY=0.5;entryX=0;entryY=0.5;rounded=0;" edge="1" parent="1" source="8YDq5UJeECT5RXHeie3x-14" target="8YDq5UJeECT5RXHeie3x-18">
          <mxGeometry relative="1" as="geometry">
            <Array as="points" />
          </mxGeometry>
        </mxCell>
        <mxCell id="8YDq5UJeECT5RXHeie3x-27" value="" style="curved=1;startArrow=none;endArrow=block;exitX=1;exitY=0.5;entryX=0;entryY=0.5;rounded=0;" edge="1" parent="1" source="8YDq5UJeECT5RXHeie3x-15" target="8YDq5UJeECT5RXHeie3x-19">
          <mxGeometry relative="1" as="geometry">
            <Array as="points" />
          </mxGeometry>
        </mxCell>
        <mxCell id="8YDq5UJeECT5RXHeie3x-28" value="" style="curved=1;startArrow=none;endArrow=block;exitX=1;exitY=0.5;entryX=0;entryY=0.5;rounded=0;" edge="1" parent="1" source="8YDq5UJeECT5RXHeie3x-16" target="8YDq5UJeECT5RXHeie3x-20">
          <mxGeometry relative="1" as="geometry">
            <Array as="points" />
          </mxGeometry>
        </mxCell>
        <mxCell id="8YDq5UJeECT5RXHeie3x-29" value="" style="curved=1;startArrow=none;endArrow=block;exitX=1;exitY=0.5;entryX=0;entryY=0.5;rounded=0;" edge="1" parent="1" source="8YDq5UJeECT5RXHeie3x-17" target="8YDq5UJeECT5RXHeie3x-21">
          <mxGeometry relative="1" as="geometry">
            <Array as="points" />
          </mxGeometry>
        </mxCell>
      </root>
    </mxGraphModel>
  </diagram>
</mxfile>
